<?xml version="1.0" encoding="UTF-8" standalone="yes"?><svg xmlns="http://www.w3.org/2000/svg" xmlns:xlink="http://www.w3.org/1999/xlink" height="808px" style="width:753px;height:808px;" version="1.1" viewBox="0 0 753 808" width="753px"><defs><filter height="300%" id="f1" width="300%" x="-1" y="-1"><feGaussianBlur result="blurOut" stdDeviation="2.0"/><feColorMatrix in="blurOut" result="blurOut2" type="matrix" values="0 0 0 0 0 0 0 0 0 0 0 0 0 0 0 0 0 0 .4 0"/><feOffset dx="4.0" dy="4.0" in="blurOut2" result="blurOut3"/><feBlend in="SourceGraphic" in2="blurOut3" mode="normal"/></filter></defs><g><text fill="#000000" font-family="sans-serif" font-size="14" font-weight="bold" lengthAdjust="spacingAndGlyphs" textLength="125" x="313.5" y="22.9951">Taler (Payment)</text><rect fill="#FFFFFF" filter="url(#f1)" height="59.2656" style="stroke: #000000; stroke-width: 2.0;" width="509" x="13" y="313.2578"/><rect fill="#FFFFFF" filter="url(#f1)" height="59.2656" style="stroke: #000000; stroke-width: 2.0;" width="213" x="13" y="429.6563"/><line style="stroke: #A80036; stroke-width: 1.0; stroke-dasharray: 5.0,5.0;" x1="112" x2="112" y1="116.5938" y2="723.8516"/><line style="stroke: #A80036; stroke-width: 1.0; stroke-dasharray: 5.0,5.0;" x1="516.5" x2="516.5" y1="116.5938" y2="723.8516"/><line style="stroke: #A80036; stroke-width: 1.0; stroke-dasharray: 5.0,5.0;" x1="673.5" x2="673.5" y1="116.5938" y2="723.8516"/><text fill="#000000" font-family="sans-serif" font-size="14" lengthAdjust="spacingAndGlyphs" textLength="172" x="23" y="113.292">Payer (Shopper) Browser</text><ellipse cx="112" cy="43.2969" fill="#FEFECE" filter="url(#f1)" rx="8" ry="8" style="stroke: #A80036; stroke-width: 2.0;"/><path d="M112,51.2969 L112,78.2969 M99,59.2969 L125,59.2969 M112,78.2969 L99,93.2969 M112,78.2969 L125,93.2969 " fill="#FEFECE" filter="url(#f1)" style="stroke: #A80036; stroke-width: 2.0;"/><text fill="#000000" font-family="sans-serif" font-size="14" lengthAdjust="spacingAndGlyphs" textLength="172" x="23" y="735.8467">Payer (Shopper) Browser</text><ellipse cx="112" cy="749.1484" fill="#FEFECE" filter="url(#f1)" rx="8" ry="8" style="stroke: #A80036; stroke-width: 2.0;"/><path d="M112,757.1484 L112,784.1484 M99,765.1484 L125,765.1484 M112,784.1484 L99,799.1484 M112,784.1484 L125,799.1484 " fill="#FEFECE" filter="url(#f1)" style="stroke: #A80036; stroke-width: 2.0;"/><rect fill="#FEFECE" filter="url(#f1)" height="30.2969" style="stroke: #A80036; stroke-width: 1.5;" width="165" x="432.5" y="81.2969"/><text fill="#000000" font-family="sans-serif" font-size="14" lengthAdjust="spacingAndGlyphs" textLength="151" x="439.5" y="101.292">Payee (Merchant) Site</text><rect fill="#FEFECE" filter="url(#f1)" height="30.2969" style="stroke: #A80036; stroke-width: 1.5;" width="165" x="432.5" y="722.8516"/><text fill="#000000" font-family="sans-serif" font-size="14" lengthAdjust="spacingAndGlyphs" textLength="151" x="439.5" y="742.8467">Payee (Merchant) Site</text><rect fill="#FEFECE" filter="url(#f1)" height="30.2969" style="stroke: #A80036; stroke-width: 1.5;" width="120" x="611.5" y="81.2969"/><text fill="#000000" font-family="sans-serif" font-size="14" lengthAdjust="spacingAndGlyphs" textLength="106" x="618.5" y="101.292">Taler Exchange</text><rect fill="#FEFECE" filter="url(#f1)" height="30.2969" style="stroke: #A80036; stroke-width: 1.5;" width="120" x="611.5" y="722.8516"/><text fill="#000000" font-family="sans-serif" font-size="14" lengthAdjust="spacingAndGlyphs" textLength="106" x="618.5" y="742.8467">Taler Exchange</text><polygon fill="#FBFB77" filter="url(#f1)" points="27,131.5938,27,156.5938,600,156.5938,600,141.5938,590,131.5938,27,131.5938" style="stroke: #A80036; stroke-width: 1.0;"/><line style="stroke: #A80036; stroke-width: 1.0;" x1="590" x2="590" y1="131.5938" y2="141.5938"/><line style="stroke: #A80036; stroke-width: 1.0;" x1="600" x2="590" y1="141.5938" y2="141.5938"/><text fill="#000000" font-family="sans-serif" font-size="13" lengthAdjust="spacingAndGlyphs" textLength="65" x="274.75" y="148.6606">Tor/HTTPS</text><polygon fill="#FBFB77" filter="url(#f1)" points="446,170.7266,446,195.7266,744,195.7266,744,180.7266,734,170.7266,446,170.7266" style="stroke: #A80036; stroke-width: 1.0;"/><line style="stroke: #A80036; stroke-width: 1.0;" x1="734" x2="734" y1="170.7266" y2="180.7266"/><line style="stroke: #A80036; stroke-width: 1.0;" x1="744" x2="734" y1="180.7266" y2="180.7266"/><text fill="#000000" font-family="sans-serif" font-size="13" lengthAdjust="spacingAndGlyphs" textLength="77" x="550" y="187.7935">HTTP/HTTPS</text><rect fill="#EEEEEE" filter="url(#f1)" height="3" style="stroke: #EEEEEE; stroke-width: 1.0;" width="746" x="3" y="225.4258"/><line style="stroke: #000000; stroke-width: 1.0;" x1="3" x2="749" y1="225.4258" y2="225.4258"/><line style="stroke: #000000; stroke-width: 1.0;" x1="3" x2="749" y1="228.4258" y2="228.4258"/><rect fill="#EEEEEE" filter="url(#f1)" height="23.1328" style="stroke: #000000; stroke-width: 2.0;" width="154" x="299" y="214.8594"/><text fill="#000000" font-family="sans-serif" font-size="13" font-weight="bold" lengthAdjust="spacingAndGlyphs" textLength="135" x="305" y="230.9263">Establish Contract</text><polygon fill="#A80036" points="505,264.9922,515,268.9922,505,272.9922,509,268.9922" style="stroke: #A80036; stroke-width: 1.0;"/><line style="stroke: #A80036; stroke-width: 1.0;" x1="112" x2="511" y1="268.9922" y2="268.9922"/><text fill="#000000" font-family="sans-serif" font-size="13" lengthAdjust="spacingAndGlyphs" textLength="91" x="119" y="264.0591">Choose goods</text><polygon fill="#A80036" points="123,294.125,113,298.125,123,302.125,119,298.125" style="stroke: #A80036; stroke-width: 1.0;"/><line style="stroke: #A80036; stroke-width: 1.0;" x1="117" x2="516" y1="298.125" y2="298.125"/><text fill="#000000" font-family="sans-serif" font-size="13" lengthAdjust="spacingAndGlyphs" textLength="237" x="129" y="293.1919">Send signed digital contract proposal</text><rect fill="none" height="59.2656" style="stroke: #000000; stroke-width: 2.0;" width="509" x="13" y="313.2578"/><polygon fill="#EEEEEE" points="13,313.2578,83,313.2578,83,320.2578,73,330.2578,13,330.2578,13,313.2578" style="stroke: #000000; stroke-width: 2.0;"/><text fill="#000000" font-family="sans-serif" font-size="13" font-weight="bold" lengthAdjust="spacingAndGlyphs" textLength="25" x="28" y="326.3247">opt</text><line style="stroke: #A80036; stroke-width: 1.0;" x1="112" x2="154" y1="351.5234" y2="351.5234"/><line style="stroke: #A80036; stroke-width: 1.0;" x1="154" x2="154" y1="351.5234" y2="364.5234"/><line style="stroke: #A80036; stroke-width: 1.0;" x1="113" x2="154" y1="364.5234" y2="364.5234"/><polygon fill="#A80036" points="123,360.5234,113,364.5234,123,368.5234,119,364.5234" style="stroke: #A80036; stroke-width: 1.0;"/><text fill="#000000" font-family="sans-serif" font-size="13" lengthAdjust="spacingAndGlyphs" textLength="391" x="119" y="346.4575">Select Taler payment method (skippable with auto-detection)</text><rect fill="#EEEEEE" filter="url(#f1)" height="3" style="stroke: #EEEEEE; stroke-width: 1.0;" width="746" x="3" y="400.0898"/><line style="stroke: #000000; stroke-width: 1.0;" x1="3" x2="749" y1="400.0898" y2="400.0898"/><line style="stroke: #000000; stroke-width: 1.0;" x1="3" x2="749" y1="403.0898" y2="403.0898"/><rect fill="#EEEEEE" filter="url(#f1)" height="23.1328" style="stroke: #000000; stroke-width: 2.0;" width="147" x="302.5" y="389.5234"/><text fill="#000000" font-family="sans-serif" font-size="13" font-weight="bold" lengthAdjust="spacingAndGlyphs" textLength="128" x="308.5" y="405.5903">Execute Payment</text><rect fill="none" height="59.2656" style="stroke: #000000; stroke-width: 2.0;" width="213" x="13" y="429.6563"/><polygon fill="#EEEEEE" points="13,429.6563,83,429.6563,83,436.6563,73,446.6563,13,446.6563,13,429.6563" style="stroke: #000000; stroke-width: 2.0;"/><text fill="#000000" font-family="sans-serif" font-size="13" font-weight="bold" lengthAdjust="spacingAndGlyphs" textLength="25" x="28" y="442.7231">opt</text><line style="stroke: #A80036; stroke-width: 1.0;" x1="112" x2="154" y1="467.9219" y2="467.9219"/><line style="stroke: #A80036; stroke-width: 1.0;" x1="154" x2="154" y1="467.9219" y2="480.9219"/><line style="stroke: #A80036; stroke-width: 1.0;" x1="113" x2="154" y1="480.9219" y2="480.9219"/><polygon fill="#A80036" points="123,476.9219,113,480.9219,123,484.9219,119,480.9219" style="stroke: #A80036; stroke-width: 1.0;"/><text fill="#000000" font-family="sans-serif" font-size="13" lengthAdjust="spacingAndGlyphs" textLength="95" x="119" y="462.856">Affirm contract</text><polygon fill="#A80036" points="505,512.9219,515,516.9219,505,520.9219,509,516.9219" style="stroke: #A80036; stroke-width: 1.0;"/><line style="stroke: #A80036; stroke-width: 1.0;" x1="112" x2="511" y1="516.9219" y2="516.9219"/><text fill="#000000" font-family="sans-serif" font-size="13" lengthAdjust="spacingAndGlyphs" textLength="94" x="119" y="511.9888">Send payment</text><polygon fill="#A80036" points="661.5,542.0547,671.5,546.0547,661.5,550.0547,665.5,546.0547" style="stroke: #A80036; stroke-width: 1.0;"/><line style="stroke: #A80036; stroke-width: 1.0;" x1="517" x2="667.5" y1="546.0547" y2="546.0547"/><text fill="#000000" font-family="sans-serif" font-size="13" lengthAdjust="spacingAndGlyphs" textLength="111" x="524" y="541.1216">Forward payment</text><polygon fill="#A80036" points="528,571.1875,518,575.1875,528,579.1875,524,575.1875" style="stroke: #A80036; stroke-width: 1.0;"/><line style="stroke: #A80036; stroke-width: 1.0;" x1="522" x2="672.5" y1="575.1875" y2="575.1875"/><text fill="#000000" font-family="sans-serif" font-size="13" lengthAdjust="spacingAndGlyphs" textLength="111" x="534" y="570.2544">Confirm payment</text><rect fill="#EEEEEE" filter="url(#f1)" height="3" style="stroke: #EEEEEE; stroke-width: 1.0;" width="746" x="3" y="603.8867"/><line style="stroke: #000000; stroke-width: 1.0;" x1="3" x2="749" y1="603.8867" y2="603.8867"/><line style="stroke: #000000; stroke-width: 1.0;" x1="3" x2="749" y1="606.8867" y2="606.8867"/><rect fill="#EEEEEE" filter="url(#f1)" height="23.1328" style="stroke: #000000; stroke-width: 2.0;" width="93" x="329.5" y="593.3203"/><text fill="#000000" font-family="sans-serif" font-size="13" font-weight="bold" lengthAdjust="spacingAndGlyphs" textLength="74" x="335.5" y="609.3872">Fulfilment</text><polygon fill="#A80036" points="123,643.4531,113,647.4531,123,651.4531,119,647.4531" style="stroke: #A80036; stroke-width: 1.0;"/><line style="stroke: #A80036; stroke-width: 1.0;" x1="117" x2="516" y1="647.4531" y2="647.4531"/><text fill="#000000" font-family="sans-serif" font-size="13" lengthAdjust="spacingAndGlyphs" textLength="111" x="129" y="642.52">Confirm payment</text><polygon fill="#A80036" points="505,672.5859,515,676.5859,505,680.5859,509,676.5859" style="stroke: #A80036; stroke-width: 1.0;"/><line style="stroke: #A80036; stroke-width: 1.0;" x1="112" x2="511" y1="676.5859" y2="676.5859"/><text fill="#000000" font-family="sans-serif" font-size="13" lengthAdjust="spacingAndGlyphs" textLength="213" x="119" y="671.6528">Request fulfillment (if Web article)</text><polygon fill="#A80036" points="123,701.7188,113,705.7188,123,709.7188,119,705.7188" style="stroke: #A80036; stroke-width: 1.0;"/><line style="stroke: #A80036; stroke-width: 1.0;" x1="117" x2="516" y1="705.7188" y2="705.7188"/><text fill="#000000" font-family="sans-serif" font-size="13" lengthAdjust="spacingAndGlyphs" textLength="160" x="129" y="700.7856">Provide product resource</text></g></svg>