<?xml version="1.0" encoding="UTF-8" standalone="yes"?><svg xmlns="http://www.w3.org/2000/svg" xmlns:xlink="http://www.w3.org/1999/xlink" height="649px" style="width:677px;height:649px;" version="1.1" viewBox="0 0 677 649" width="677px"><defs/><g><text fill="#000000" font-family="Lucida Sans" font-size="14" font-weight="bold" lengthAdjust="spacingAndGlyphs" textLength="179" x="253.25" y="22.9951">Taler (Withdraw coins)</text><rect fill="#FFFFFF" height="75.3984" style="stroke: #000000; stroke-width: 2.0;" width="473" x="13" y="422.7891"/><line style="stroke: #A80036; stroke-width: 1.0; stroke-dasharray: 5.0,5.0;" x1="90" x2="90" y1="112.5938" y2="573.4531"/><line style="stroke: #A80036; stroke-width: 1.0; stroke-dasharray: 5.0,5.0;" x1="436" x2="436" y1="112.5938" y2="573.4531"/><line style="stroke: #A80036; stroke-width: 1.0; stroke-dasharray: 5.0,5.0;" x1="616.5" x2="616.5" y1="112.5938" y2="573.4531"/><text fill="#000000" font-family="Lucida Sans" font-size="14" lengthAdjust="spacingAndGlyphs" textLength="129" x="23" y="109.292">Customer Browser</text><ellipse cx="90.5" cy="43.2969" fill="#FEFECE" rx="8" ry="8" style="stroke: #A80036; stroke-width: 2.0;"/><path d="M90.5,51.2969 L90.5,78.2969 M77.5,59.2969 L103.5,59.2969 M90.5,78.2969 L77.5,93.2969 M90.5,78.2969 L103.5,93.2969 " fill="#FEFECE" style="stroke: #A80036; stroke-width: 2.0;"/><text fill="#000000" font-family="Lucida Sans" font-size="14" lengthAdjust="spacingAndGlyphs" textLength="129" x="23" y="585.4482">Customer Browser</text><ellipse cx="90.5" cy="598.75" fill="#FEFECE" rx="8" ry="8" style="stroke: #A80036; stroke-width: 2.0;"/><path d="M90.5,606.75 L90.5,633.75 M77.5,614.75 L103.5,614.75 M90.5,633.75 L77.5,648.75 M90.5,633.75 L103.5,648.75 " fill="#FEFECE" style="stroke: #A80036; stroke-width: 2.0;"/><rect fill="#FEFECE" height="30.2969" style="stroke: #A80036; stroke-width: 1.5;" width="79" x="397" y="81.2969"/><text fill="#000000" font-family="Lucida Sans" font-size="14" lengthAdjust="spacingAndGlyphs" textLength="65" x="404" y="101.292">Bank Site</text><rect fill="#FEFECE" height="30.2969" style="stroke: #A80036; stroke-width: 1.5;" width="79" x="397" y="572.4531"/><text fill="#000000" font-family="Lucida Sans" font-size="14" lengthAdjust="spacingAndGlyphs" textLength="65" x="404" y="592.4482">Bank Site</text><rect fill="#FEFECE" height="30.2969" style="stroke: #A80036; stroke-width: 1.5;" width="120" x="556.5" y="81.2969"/><text fill="#000000" font-family="Lucida Sans" font-size="14" lengthAdjust="spacingAndGlyphs" textLength="106" x="563.5" y="101.292">Taler Exchange</text><rect fill="#FEFECE" height="30.2969" style="stroke: #A80036; stroke-width: 1.5;" width="120" x="556.5" y="572.4531"/><text fill="#000000" font-family="Lucida Sans" font-size="14" lengthAdjust="spacingAndGlyphs" textLength="106" x="563.5" y="592.4482">Taler Exchange</text><polygon fill="#FBFB77" points="39,127.5938,39,152.5938,487,152.5938,487,137.5938,477,127.5938,39,127.5938" style="stroke: #A80036; stroke-width: 1.0;"/><line style="stroke: #A80036; stroke-width: 1.0;" x1="477" x2="477" y1="127.5938" y2="137.5938"/><line style="stroke: #A80036; stroke-width: 1.0;" x1="487" x2="477" y1="137.5938" y2="137.5938"/><text fill="#000000" font-family="Lucida Sans" font-size="13" lengthAdjust="spacingAndGlyphs" textLength="41" x="238" y="144.6606">HTTPS</text><polygon fill="#FBFB77" points="29,162.7266,29,187.7266,677,187.7266,677,172.7266,667,162.7266,29,162.7266" style="stroke: #A80036; stroke-width: 1.0;"/><line style="stroke: #A80036; stroke-width: 1.0;" x1="667" x2="667" y1="162.7266" y2="172.7266"/><line style="stroke: #A80036; stroke-width: 1.0;" x1="677" x2="667" y1="172.7266" y2="172.7266"/><text fill="#000000" font-family="Lucida Sans" font-size="13" lengthAdjust="spacingAndGlyphs" textLength="41" x="328.25" y="179.7935">HTTPS</text><polygon fill="#FBFB77" points="389,197.8594,389,222.8594,663,222.8594,663,207.8594,653,197.8594,389,197.8594" style="stroke: #A80036; stroke-width: 1.0;"/><line style="stroke: #A80036; stroke-width: 1.0;" x1="653" x2="653" y1="197.8594" y2="207.8594"/><line style="stroke: #A80036; stroke-width: 1.0;" x1="663" x2="653" y1="207.8594" y2="207.8594"/><text fill="#000000" font-family="Lucida Sans" font-size="13" lengthAdjust="spacingAndGlyphs" textLength="34" x="504.75" y="214.9263">SEPA</text><polygon fill="#A80036" points="424.5,244.9922,434.5,248.9922,424.5,252.9922,428.5,248.9922" style="stroke: #A80036; stroke-width: 1.0;"/><line style="stroke: #A80036; stroke-width: 1.0;" x1="90.5" x2="430.5" y1="248.9922" y2="248.9922"/><text fill="#000000" font-family="Lucida Sans" font-size="13" font-weight="bold" lengthAdjust="spacingAndGlyphs" textLength="9" x="97.5" y="244.0591">1</text><text fill="#000000" font-family="Lucida Sans" font-size="13" lengthAdjust="spacingAndGlyphs" textLength="124" x="110.5" y="244.0591">user authentication</text><polygon fill="#A80036" points="101.5,274.125,91.5,278.125,101.5,282.125,97.5,278.125" style="stroke: #A80036; stroke-width: 1.0;"/><line style="stroke: #A80036; stroke-width: 1.0;" x1="95.5" x2="435.5" y1="278.125" y2="278.125"/><text fill="#000000" font-family="Lucida Sans" font-size="13" font-weight="bold" lengthAdjust="spacingAndGlyphs" textLength="9" x="107.5" y="273.1919">2</text><text fill="#000000" font-family="Lucida Sans" font-size="13" lengthAdjust="spacingAndGlyphs" textLength="127" x="120.5" y="273.1919">send account portal</text><line style="stroke: #A80036; stroke-width: 1.0;" x1="90.5" x2="132.5" y1="307.3906" y2="307.3906"/><line style="stroke: #A80036; stroke-width: 1.0;" x1="132.5" x2="132.5" y1="307.3906" y2="320.3906"/><line style="stroke: #A80036; stroke-width: 1.0;" x1="91.5" x2="132.5" y1="320.3906" y2="320.3906"/><polygon fill="#A80036" points="101.5,316.3906,91.5,320.3906,101.5,324.3906,97.5,320.3906" style="stroke: #A80036; stroke-width: 1.0;"/><text fill="#000000" font-family="Lucida Sans" font-size="13" font-weight="bold" lengthAdjust="spacingAndGlyphs" textLength="9" x="97.5" y="302.3247">3</text><text fill="#000000" font-family="Lucida Sans" font-size="13" lengthAdjust="spacingAndGlyphs" textLength="319" x="110.5" y="302.3247">initiate withdrawal (specify amount and exchange)</text><polygon fill="#A80036" points="604.5,345.3906,614.5,349.3906,604.5,353.3906,608.5,349.3906" style="stroke: #A80036; stroke-width: 1.0;"/><line style="stroke: #A80036; stroke-width: 1.0;" x1="90.5" x2="610.5" y1="349.3906" y2="349.3906"/><text fill="#000000" font-family="Lucida Sans" font-size="13" font-weight="bold" lengthAdjust="spacingAndGlyphs" textLength="9" x="97.5" y="344.4575">4</text><text fill="#000000" font-family="Lucida Sans" font-size="13" lengthAdjust="spacingAndGlyphs" textLength="276" x="110.5" y="344.4575">request key material and wire transfer data</text><polygon fill="#A80036" points="101.5,374.5234,91.5,378.5234,101.5,382.5234,97.5,378.5234" style="stroke: #A80036; stroke-width: 1.0;"/><line style="stroke: #A80036; stroke-width: 1.0;" x1="95.5" x2="615.5" y1="378.5234" y2="378.5234"/><text fill="#000000" font-family="Lucida Sans" font-size="13" font-weight="bold" lengthAdjust="spacingAndGlyphs" textLength="9" x="107.5" y="373.5903">5</text><text fill="#000000" font-family="Lucida Sans" font-size="13" lengthAdjust="spacingAndGlyphs" textLength="258" x="120.5" y="373.5903">send key material and wire transfer data</text><polygon fill="#A80036" points="424.5,403.6563,434.5,407.6563,424.5,411.6563,428.5,407.6563" style="stroke: #A80036; stroke-width: 1.0;"/><line style="stroke: #A80036; stroke-width: 1.0;" x1="90.5" x2="430.5" y1="407.6563" y2="407.6563"/><text fill="#000000" font-family="Lucida Sans" font-size="13" font-weight="bold" lengthAdjust="spacingAndGlyphs" textLength="9" x="97.5" y="402.7231">6</text><text fill="#000000" font-family="Lucida Sans" font-size="13" lengthAdjust="spacingAndGlyphs" textLength="121" x="110.5" y="402.7231">execute withdrawal</text><rect fill="none" height="75.3984" style="stroke: #000000; stroke-width: 2.0;" width="473" x="13" y="422.7891"/><polygon fill="#EEEEEE" points="13,422.7891,83,422.7891,83,429.7891,73,439.7891,13,439.7891,13,422.7891" style="stroke: #000000; stroke-width: 2.0;"/><text fill="#000000" font-family="Lucida Sans" font-size="13" font-weight="bold" lengthAdjust="spacingAndGlyphs" textLength="25" x="28" y="435.856">opt</text><polygon fill="#A80036" points="101.5,456.9219,91.5,460.9219,101.5,464.9219,97.5,460.9219" style="stroke: #A80036; stroke-width: 1.0;"/><line style="stroke: #A80036; stroke-width: 1.0;" x1="95.5" x2="435.5" y1="460.9219" y2="460.9219"/><text fill="#000000" font-family="Lucida Sans" font-size="13" font-weight="bold" lengthAdjust="spacingAndGlyphs" textLength="9" x="107.5" y="455.9888">7</text><text fill="#000000" font-family="Lucida Sans" font-size="13" lengthAdjust="spacingAndGlyphs" textLength="213" x="120.5" y="455.9888">request transaction authorization</text><polygon fill="#A80036" points="424.5,486.0547,434.5,490.0547,424.5,494.0547,428.5,490.0547" style="stroke: #A80036; stroke-width: 1.0;"/><line style="stroke: #A80036; stroke-width: 1.0;" x1="90.5" x2="430.5" y1="490.0547" y2="490.0547"/><text fill="#000000" font-family="Lucida Sans" font-size="13" font-weight="bold" lengthAdjust="spacingAndGlyphs" textLength="9" x="97.5" y="485.1216">8</text><text fill="#000000" font-family="Lucida Sans" font-size="13" lengthAdjust="spacingAndGlyphs" textLength="160" x="110.5" y="485.1216">transaction authorization</text><polygon fill="#A80036" points="101.5,522.1875,91.5,526.1875,101.5,530.1875,97.5,526.1875" style="stroke: #A80036; stroke-width: 1.0;"/><line style="stroke: #A80036; stroke-width: 1.0;" x1="95.5" x2="435.5" y1="526.1875" y2="526.1875"/><text fill="#000000" font-family="Lucida Sans" font-size="13" font-weight="bold" lengthAdjust="spacingAndGlyphs" textLength="9" x="107.5" y="521.2544">9</text><text fill="#000000" font-family="Lucida Sans" font-size="13" lengthAdjust="spacingAndGlyphs" textLength="150" x="120.5" y="521.2544">withdrawal confirmation</text><polygon fill="#A80036" points="604.5,551.3203,614.5,555.3203,604.5,559.3203,608.5,555.3203" style="stroke: #A80036; stroke-width: 1.0;"/><line style="stroke: #A80036; stroke-width: 1.0;" x1="436.5" x2="610.5" y1="555.3203" y2="555.3203"/><text fill="#000000" font-family="Lucida Sans" font-size="13" font-weight="bold" lengthAdjust="spacingAndGlyphs" textLength="18" x="443.5" y="550.3872">10</text><text fill="#000000" font-family="Lucida Sans" font-size="13" lengthAdjust="spacingAndGlyphs" textLength="134" x="465.5" y="550.3872">execute wire transfer</text></g></svg>