<?xml version="1.0" encoding="UTF-8" standalone="yes"?><svg xmlns="http://www.w3.org/2000/svg" xmlns:xlink="http://www.w3.org/1999/xlink" height="729px" style="width:757px;height:729px;" version="1.1" viewBox="0 0 757 729" width="757px"><defs/><g><text fill="#000000" font-family="Lucida Sans" font-size="14" font-weight="bold" lengthAdjust="spacingAndGlyphs" textLength="125" x="317" y="22.9951">Taler (Payment)</text><rect fill="#FFFFFF" height="59.2656" style="stroke: #000000; stroke-width: 2.0;" width="522" x="13" y="242.9922"/><rect fill="#FFFFFF" height="59.2656" style="stroke: #000000; stroke-width: 2.0;" width="226" x="13" y="417.6563"/><line style="stroke: #A80036; stroke-width: 1.0; stroke-dasharray: 5.0,5.0;" x1="112" x2="112" y1="112.5938" y2="653.5859"/><line style="stroke: #A80036; stroke-width: 1.0; stroke-dasharray: 5.0,5.0;" x1="529.5" x2="529.5" y1="112.5938" y2="653.5859"/><line style="stroke: #A80036; stroke-width: 1.0; stroke-dasharray: 5.0,5.0;" x1="682.5" x2="682.5" y1="112.5938" y2="653.5859"/><text fill="#000000" font-family="Lucida Sans" font-size="14" lengthAdjust="spacingAndGlyphs" textLength="172" x="23" y="109.292">Payer (Shopper) Browser</text><ellipse cx="112" cy="43.2969" fill="#FEFECE" rx="8" ry="8" style="stroke: #A80036; stroke-width: 2.0;"/><path d="M112,51.2969 L112,78.2969 M99,59.2969 L125,59.2969 M112,78.2969 L99,93.2969 M112,78.2969 L125,93.2969 " fill="#FEFECE" style="stroke: #A80036; stroke-width: 2.0;"/><text fill="#000000" font-family="Lucida Sans" font-size="14" lengthAdjust="spacingAndGlyphs" textLength="172" x="23" y="665.5811">Payer (Shopper) Browser</text><ellipse cx="112" cy="678.8828" fill="#FEFECE" rx="8" ry="8" style="stroke: #A80036; stroke-width: 2.0;"/><path d="M112,686.8828 L112,713.8828 M99,694.8828 L125,694.8828 M112,713.8828 L99,728.8828 M112,713.8828 L125,728.8828 " fill="#FEFECE" style="stroke: #A80036; stroke-width: 2.0;"/><rect fill="#FEFECE" height="30.2969" style="stroke: #A80036; stroke-width: 1.5;" width="165" x="447.5" y="81.2969"/><text fill="#000000" font-family="Lucida Sans" font-size="14" lengthAdjust="spacingAndGlyphs" textLength="151" x="454.5" y="101.292">Payee (Merchant) Site</text><rect fill="#FEFECE" height="30.2969" style="stroke: #A80036; stroke-width: 1.5;" width="165" x="447.5" y="652.5859"/><text fill="#000000" font-family="Lucida Sans" font-size="14" lengthAdjust="spacingAndGlyphs" textLength="151" x="454.5" y="672.5811">Payee (Merchant) Site</text><rect fill="#FEFECE" height="30.2969" style="stroke: #A80036; stroke-width: 1.5;" width="120" x="622.5" y="81.2969"/><text fill="#000000" font-family="Lucida Sans" font-size="14" lengthAdjust="spacingAndGlyphs" textLength="106" x="629.5" y="101.292">Taler Exchange</text><rect fill="#FEFECE" height="30.2969" style="stroke: #A80036; stroke-width: 1.5;" width="120" x="622.5" y="652.5859"/><text fill="#000000" font-family="Lucida Sans" font-size="14" lengthAdjust="spacingAndGlyphs" textLength="106" x="629.5" y="672.5811">Taler Exchange</text><polygon fill="#FBFB77" points="28,127.5938,28,152.5938,612,152.5938,612,137.5938,602,127.5938,28,127.5938" style="stroke: #A80036; stroke-width: 1.0;"/><line style="stroke: #A80036; stroke-width: 1.0;" x1="602" x2="602" y1="127.5938" y2="137.5938"/><line style="stroke: #A80036; stroke-width: 1.0;" x1="612" x2="602" y1="137.5938" y2="137.5938"/><text fill="#000000" font-family="Lucida Sans" font-size="13" lengthAdjust="spacingAndGlyphs" textLength="65" x="283.25" y="144.6606">Tor/HTTPS</text><polygon fill="#FBFB77" points="461,162.7266,461,187.7266,751,187.7266,751,172.7266,741,162.7266,461,162.7266" style="stroke: #A80036; stroke-width: 1.0;"/><line style="stroke: #A80036; stroke-width: 1.0;" x1="741" x2="741" y1="162.7266" y2="172.7266"/><line style="stroke: #A80036; stroke-width: 1.0;" x1="751" x2="741" y1="172.7266" y2="172.7266"/><text fill="#000000" font-family="Lucida Sans" font-size="13" lengthAdjust="spacingAndGlyphs" textLength="77" x="563" y="179.7935">HTTP/HTTPS</text><rect fill="#FFFFFF" height="3" style="stroke: #FFFFFF; stroke-width: 1.0;" width="753" x="3" y="213.4258"/><line style="stroke: #000000; stroke-width: 1.0;" x1="3" x2="756" y1="213.4258" y2="213.4258"/><line style="stroke: #000000; stroke-width: 1.0;" x1="3" x2="756" y1="216.4258" y2="216.4258"/><rect fill="#FFFFFF" height="23.1328" style="stroke: #000000; stroke-width: 2.0;" width="237" x="261" y="202.8594"/><text fill="#000000" font-family="Lucida Sans" font-size="13" font-weight="bold" lengthAdjust="spacingAndGlyphs" textLength="218" x="267" y="218.9263">Establish Payment Obligation</text><rect fill="none" height="59.2656" style="stroke: #000000; stroke-width: 2.0;" width="522" x="13" y="242.9922"/><polygon fill="#EEEEEE" points="13,242.9922,83,242.9922,83,249.9922,73,259.9922,13,259.9922,13,242.9922" style="stroke: #000000; stroke-width: 2.0;"/><text fill="#000000" font-family="Lucida Sans" font-size="13" font-weight="bold" lengthAdjust="spacingAndGlyphs" textLength="25" x="28" y="256.0591">opt</text><line style="stroke: #A80036; stroke-width: 1.0;" x1="112" x2="154" y1="281.2578" y2="281.2578"/><line style="stroke: #A80036; stroke-width: 1.0;" x1="154" x2="154" y1="281.2578" y2="294.2578"/><line style="stroke: #A80036; stroke-width: 1.0;" x1="113" x2="154" y1="294.2578" y2="294.2578"/><polygon fill="#A80036" points="123,290.2578,113,294.2578,123,298.2578,119,294.2578" style="stroke: #A80036; stroke-width: 1.0;"/><text fill="#000000" font-family="Lucida Sans" font-size="13" font-weight="bold" lengthAdjust="spacingAndGlyphs" textLength="9" x="119" y="276.1919">1</text><text fill="#000000" font-family="Lucida Sans" font-size="13" lengthAdjust="spacingAndGlyphs" textLength="391" x="132" y="276.1919">Select Taler payment method (skippable with auto-detection)</text><polygon fill="#A80036" points="518,326.2578,528,330.2578,518,334.2578,522,330.2578" style="stroke: #A80036; stroke-width: 1.0;"/><line style="stroke: #A80036; stroke-width: 1.0;" x1="112" x2="524" y1="330.2578" y2="330.2578"/><text fill="#000000" font-family="Lucida Sans" font-size="13" font-weight="bold" lengthAdjust="spacingAndGlyphs" textLength="9" x="119" y="325.3247">2</text><text fill="#000000" font-family="Lucida Sans" font-size="13" lengthAdjust="spacingAndGlyphs" textLength="91" x="132" y="325.3247">Choose goods</text><polygon fill="#A80036" points="123,355.3906,113,359.3906,123,363.3906,119,359.3906" style="stroke: #A80036; stroke-width: 1.0;"/><line style="stroke: #A80036; stroke-width: 1.0;" x1="117" x2="529" y1="359.3906" y2="359.3906"/><text fill="#000000" font-family="Lucida Sans" font-size="13" font-weight="bold" lengthAdjust="spacingAndGlyphs" textLength="9" x="129" y="354.4575">3</text><text fill="#000000" font-family="Lucida Sans" font-size="13" lengthAdjust="spacingAndGlyphs" textLength="237" x="142" y="354.4575">Send signed digital contract proposal</text><rect fill="#FFFFFF" height="3" style="stroke: #FFFFFF; stroke-width: 1.0;" width="753" x="3" y="388.0898"/><line style="stroke: #000000; stroke-width: 1.0;" x1="3" x2="756" y1="388.0898" y2="388.0898"/><line style="stroke: #000000; stroke-width: 1.0;" x1="3" x2="756" y1="391.0898" y2="391.0898"/><rect fill="#FFFFFF" height="23.1328" style="stroke: #000000; stroke-width: 2.0;" width="147" x="306" y="377.5234"/><text fill="#000000" font-family="Lucida Sans" font-size="13" font-weight="bold" lengthAdjust="spacingAndGlyphs" textLength="128" x="312" y="393.5903">Execute Payment</text><rect fill="none" height="59.2656" style="stroke: #000000; stroke-width: 2.0;" width="226" x="13" y="417.6563"/><polygon fill="#EEEEEE" points="13,417.6563,83,417.6563,83,424.6563,73,434.6563,13,434.6563,13,417.6563" style="stroke: #000000; stroke-width: 2.0;"/><text fill="#000000" font-family="Lucida Sans" font-size="13" font-weight="bold" lengthAdjust="spacingAndGlyphs" textLength="25" x="28" y="430.7231">opt</text><line style="stroke: #A80036; stroke-width: 1.0;" x1="112" x2="154" y1="455.9219" y2="455.9219"/><line style="stroke: #A80036; stroke-width: 1.0;" x1="154" x2="154" y1="455.9219" y2="468.9219"/><line style="stroke: #A80036; stroke-width: 1.0;" x1="113" x2="154" y1="468.9219" y2="468.9219"/><polygon fill="#A80036" points="123,464.9219,113,468.9219,123,472.9219,119,468.9219" style="stroke: #A80036; stroke-width: 1.0;"/><text fill="#000000" font-family="Lucida Sans" font-size="13" font-weight="bold" lengthAdjust="spacingAndGlyphs" textLength="9" x="119" y="450.856">4</text><text fill="#000000" font-family="Lucida Sans" font-size="13" lengthAdjust="spacingAndGlyphs" textLength="95" x="132" y="450.856">Affirm contract</text><polygon fill="#A80036" points="518,500.9219,528,504.9219,518,508.9219,522,504.9219" style="stroke: #A80036; stroke-width: 1.0;"/><line style="stroke: #A80036; stroke-width: 1.0;" x1="112" x2="524" y1="504.9219" y2="504.9219"/><text fill="#000000" font-family="Lucida Sans" font-size="13" font-weight="bold" lengthAdjust="spacingAndGlyphs" textLength="9" x="119" y="499.9888">5</text><text fill="#000000" font-family="Lucida Sans" font-size="13" lengthAdjust="spacingAndGlyphs" textLength="94" x="132" y="499.9888">Send payment</text><polygon fill="#A80036" points="670.5,530.0547,680.5,534.0547,670.5,538.0547,674.5,534.0547" style="stroke: #A80036; stroke-width: 1.0;"/><line style="stroke: #A80036; stroke-width: 1.0;" x1="530" x2="676.5" y1="534.0547" y2="534.0547"/><text fill="#000000" font-family="Lucida Sans" font-size="13" font-weight="bold" lengthAdjust="spacingAndGlyphs" textLength="9" x="537" y="529.1216">6</text><text fill="#000000" font-family="Lucida Sans" font-size="13" lengthAdjust="spacingAndGlyphs" textLength="111" x="550" y="529.1216">Forward payment</text><polygon fill="#A80036" points="541,559.1875,531,563.1875,541,567.1875,537,563.1875" style="stroke: #A80036; stroke-width: 1.0;"/><line style="stroke: #A80036; stroke-width: 1.0;" x1="535" x2="681.5" y1="563.1875" y2="563.1875"/><text fill="#000000" font-family="Lucida Sans" font-size="13" font-weight="bold" lengthAdjust="spacingAndGlyphs" textLength="9" x="547" y="558.2544">7</text><text fill="#000000" font-family="Lucida Sans" font-size="13" lengthAdjust="spacingAndGlyphs" textLength="111" x="560" y="558.2544">Confirm payment</text><rect fill="#FFFFFF" height="3" style="stroke: #FFFFFF; stroke-width: 1.0;" width="753" x="3" y="591.8867"/><line style="stroke: #000000; stroke-width: 1.0;" x1="3" x2="756" y1="591.8867" y2="591.8867"/><line style="stroke: #000000; stroke-width: 1.0;" x1="3" x2="756" y1="594.8867" y2="594.8867"/><rect fill="#FFFFFF" height="23.1328" style="stroke: #000000; stroke-width: 2.0;" width="93" x="333" y="581.3203"/><text fill="#000000" font-family="Lucida Sans" font-size="13" font-weight="bold" lengthAdjust="spacingAndGlyphs" textLength="74" x="339" y="597.3872">Fulfilment</text><polygon fill="#A80036" points="123,631.4531,113,635.4531,123,639.4531,119,635.4531" style="stroke: #A80036; stroke-width: 1.0;"/><line style="stroke: #A80036; stroke-width: 1.0;" x1="117" x2="529" y1="635.4531" y2="635.4531"/><text fill="#000000" font-family="Lucida Sans" font-size="13" font-weight="bold" lengthAdjust="spacingAndGlyphs" textLength="9" x="129" y="630.52">8</text><text fill="#000000" font-family="Lucida Sans" font-size="13" lengthAdjust="spacingAndGlyphs" textLength="180" x="142" y="630.52">Provide products or services</text></g></svg>