<?xml version="1.0" encoding="UTF-8" standalone="no"?>
<svg
   xmlns:svg="http://www.w3.org/2000/svg"
   xmlns="http://www.w3.org/2000/svg"
   width="670"
   height="300"
   viewBox="0 0 201 90"
   version="1.1"
   id="svg8">
  <g
     id="logo">
    <g
       id="circles"
       style="fill:#FFF;fill-opacity:1;fill-rule:evenodd;stroke:none;stroke-width:0.327943">
      <path
         d="m 86.662153,1.1211936 c 15.589697,0 29.129227,9.4011664 35.961027,23.2018054 h -5.81736 C 110.4866,13.623304 99.349002,6.5180852 86.662153,6.5180852 c -19.690571,0 -35.652876,17.1120008 -35.652876,38.2205688 0,10.331797 3.825597,19.704678 10.03957,26.582945 -1.342357,1.120912 -2.771532,2.127905 -4.275488,3.006754 C 50.071485,66.553412 45.974857,56.15992 45.974857,44.738654 c 0,-24.089211 18.216325,-43.6174604 40.687296,-43.6174604 z M 122.51416,65.375898 c -6.86645,13.680134 -20.34561,22.980218 -35.852007,22.980218 -1.052702,0 -2.096093,-0.04291 -3.128683,-0.127026 3.052192,-1.561167 5.913582,-3.480387 8.538307,-5.707305 10.320963,-1.684389 19.185983,-8.113638 24.601813,-17.145887 z"
         id="path2350" />
      <path
         d="m 64.212372,1.1211936 c 1.052607,0 2.095998,0.042919 3.128684,0.1270583 C 64.288864,2.8094199 61.427378,4.728606 58.802653,6.9555572 41.679542,9.7498571 28.559494,25.601563 28.559494,44.738654 c 0,14.264563 7.29059,26.702023 18.093843,33.268925 -1.593656,0.26719 -3.226966,0.406948 -4.890748,0.406948 -1.239545,0 -2.46151,-0.07952 -3.663522,-0.229364 C 29.191129,70.184015 23.525076,58.171633 23.525076,44.738654 23.525076,20.649443 41.7414,1.1211936 64.212372,1.1211936 Z M 69.62209,82.521785 C 79.943207,80.837396 88.808164,74.407841 94.224059,65.375422 h 5.840511 c -6.866354,13.680305 -20.345548,22.980694 -35.852198,22.980694 -1.052703,0 -2.095999,-0.04291 -3.128684,-0.127026 3.052002,-1.561371 5.913836,-3.480218 8.538402,-5.707305 z M 94.355885,24.322999 c -3.13939,-5.314721 -7.467551,-9.74275 -12.584511,-12.853269 1.593656,-0.26719 3.226904,-0.406948 4.890779,-0.406948 1.239451,0 2.461512,0.07952 3.663524,0.229364 4.016018,3.607242 7.373195,8.030111 9.849053,13.030853 z"
         id="path2352" />
      <path
         d="m 41.762589,1.1211936 c 1.064296,0 2.118804,0.044379 3.162607,0.1302161 -3.046523,1.558961 -5.903162,3.4745139 -8.52358,5.6968133 C 19.254624,9.7205882 6.1097128,25.583465 6.1097128,44.738654 c 0,21.108568 15.9624012,38.22057 35.6528762,38.22057 12.599746,0 23.672446,-7.007056 30.013748,-17.583802 h 5.838515 C 70.748498,79.055727 57.26924,88.356116 41.762589,88.356116 c -22.470907,0 -40.6871998,-19.52825 -40.6871998,-43.617462 0,-24.089211 18.2162928,-43.6174604 40.6871998,-43.6174604 z M 71.905375,24.322999 c -1.31192,-2.220567 -2.830984,-4.287049 -4.528877,-6.166508 1.342452,-1.120945 2.771374,-2.128381 4.275139,-3.00723 2.372984,2.753011 4.418875,5.834636 6.072489,9.173738 z"
         id="path2354" />
    </g>
    <g
       id="letters"
       style="fill:#FFF">
      <path
         d="m 76.135411,34.409066 h 9.161042 V 29.36588 H 61.857537 v 5.043186 h 9.161137 v 25.92317 h 5.116737 z"
         id="path2346" />
      <path
         d="m 92.647571,52.856334 h 13.659009 l 2.93009,7.476072 h 5.36461 L 101.89122,29.144903 H 97.187186 L 84.477089,60.332406 h 5.199533 z m 11.802109,-4.822276 h -9.944771 l 4.951718,-12.386462 z"
         id="path2362" />
      <path
         d="m 123.80641,29.366084 h -4.58038 v 30.966322 h 20.54728 v -4.910253 c -5.32227,0 -10.64463,0 -15.9669,0 z"
         id="path2356" />
      <path
         d="m 166.4722,29.366084 h -21.37564 v 30.966322 h 21.58203 v -4.910253 h -16.54771 v -8.27275 h 14.48439 V 42.23925 h -14.48439 v -7.962811 h 16.34132 z"
         id="path2360" />
      <path
         d="m 191.19035,39.474593 c 0,1.59947 -0.53646,2.87535 -1.61628,3.818883 -1.07281,0.95124 -2.52409,1.422837 -4.34678,1.422837 h -7.44851 V 34.276439 h 7.4073 c 1.9051,0 3.38376,0.435027 4.42939,1.312178 1.05226,0.870258 1.57488,2.167734 1.57488,3.885976 z m 6.06602,20.857813 -7.79911,-11.723191 c 1.01771,-0.294794 1.94631,-0.714813 2.78553,-1.260566 0.83885,-0.545619 1.56122,-1.209263 2.16629,-1.990627 0.60541,-0.781738 1.07981,-1.681096 1.42369,-2.698345 0.34378,-1.017553 0.51561,-2.175238 0.51561,-3.472883 0,-1.50409 -0.24743,-2.867948 -0.74267,-4.092048 -0.49515,-1.223794 -1.20344,-2.256186 -2.12499,-3.096734 -0.92173,-0.840446 -2.04957,-1.489252 -3.38375,-1.946452 -1.33447,-0.457267 -2.82692,-0.685476 -4.4774,-0.685476 h -12.87512 v 30.966322 h 5.03433 V 49.538522 h 6.37569 l 7.11829,10.793884 z"
         id="path2358" />
    </g>
  </g>
</svg>
